<svg width="55" height="55" viewBox="0 0 55 55" fill="none" xmlns="http://www.w3.org/2000/svg">
<rect x="0.5" y="0.5" width="54" height="54" rx="27" stroke="white"/>
<path d="M29 36.5H25V24.5H29V26.5C29.8526 25.4152 31.1456 24.7686 32.525 24.737C35.0056 24.7508 37.0072 26.7694 37 29.25V36.5H33V29.75C32.84 28.6326 31.8818 27.8036 30.753 27.806C30.2593 27.8216 29.7932 28.0378 29.4624 28.4046C29.1316 28.7715 28.9646 29.2573 29 29.75V36.5ZM23 36.5H19V24.5H23V36.5ZM21 22.5C19.8954 22.5 19 21.6046 19 20.5C19 19.3954 19.8954 18.5 21 18.5C22.1046 18.5 23 19.3954 23 20.5C23 21.0304 22.7893 21.5391 22.4142 21.9142C22.0391 22.2893 21.5304 22.5 21 22.5Z" fill="white"/>
</svg>
