<svg width="35" height="35" viewBox="0 0 50 48" fill="none" xmlns="http://www.w3.org/2000/svg">
<g clip-path="url(#clip0_468_225)">
<path d="M24.1359 33.525C22.2328 31.1426 18 25.3684 18 22.125C18 18.1899 21.134 15 25 15C28.8646 15 32 18.1899 32 22.125C32 25.3684 27.7344 31.1426 25.8641 33.525C25.4156 34.0928 24.5844 34.0928 24.1359 33.525ZM25 24.5C26.287 24.5 27.3333 23.435 27.3333 22.125C27.3333 20.815 26.287 19.75 25 19.75C23.713 19.75 22.6667 20.815 22.6667 22.125C22.6667 23.435 23.713 24.5 25 24.5Z" fill="white"/>
</g>
<path d="M49.5 24C49.5 36.9597 38.5504 47.5 25 47.5C11.4496 47.5 0.5 36.9597 0.5 24C0.5 11.0403 11.4496 0.5 25 0.5C38.5504 0.5 49.5 11.0403 49.5 24Z" stroke="white"/>
<defs>
<clipPath id="clip0_468_225">
<rect width="14" height="19" fill="white" transform="translate(18 15)"/>
</clipPath>
</defs>
</svg>
