<svg width="40" height="40" viewBox="0 0 50 48" fill="none" xmlns="http://www.w3.org/2000/svg">
<path d="M17.6442 16.7998H33.5442C35.0442 16.7998 35.8002 17.5078 35.8002 18.9478V29.0518C35.8002 30.4798 35.0442 31.1998 33.5442 31.1998H17.6442C16.1442 31.1998 15.3882 30.4798 15.3882 29.0518V18.9478C15.3882 17.5078 16.1442 16.7998 17.6442 16.7998ZM25.5882 27.1198L33.6762 20.4838C33.9642 20.2438 34.1922 19.6918 33.8322 19.1998C33.4842 18.7078 32.8482 18.6958 32.4282 18.9958L25.5882 23.6278L18.7602 18.9958C18.3402 18.6958 17.7042 18.7078 17.3562 19.1998C16.9962 19.6918 17.2242 20.2438 17.5122 20.4838L25.5882 27.1198Z" fill="white"/>
<path d="M49.5 24C49.5 36.9597 38.5504 47.5 25 47.5C11.4496 47.5 0.5 36.9597 0.5 24C0.5 11.0403 11.4496 0.5 25 0.5C38.5504 0.5 49.5 11.0403 49.5 24Z" stroke="white"/>
</svg>
