<svg width="40" height="40" viewBox="0 0 50 48" fill="none" xmlns="http://www.w3.org/2000/svg">
<g clip-path="url(#clip0_468_212)">
<path d="M16.2437 16.3953L18.7398 13.9016C18.9159 13.7247 19.1252 13.5844 19.3557 13.4887C19.5861 13.3929 19.8333 13.3437 20.0828 13.3438C20.5914 13.3438 21.0695 13.543 21.4281 13.9016L24.1141 16.5875C24.2909 16.7636 24.4312 16.9729 24.527 17.2033C24.6227 17.4338 24.6719 17.6809 24.6719 17.9305C24.6719 18.4391 24.4727 18.9172 24.1141 19.2758L22.15 21.2398C22.6097 22.2532 23.2489 23.175 24.0367 23.9609C24.8225 24.7506 25.7443 25.3922 26.7578 25.8547L28.7219 23.8906C28.898 23.7138 29.1072 23.5735 29.3377 23.4777C29.5682 23.382 29.8153 23.3328 30.0648 23.3328C30.5734 23.3328 31.0516 23.532 31.4102 23.8906L34.0984 26.5742C34.2755 26.7506 34.4159 26.9603 34.5117 27.1912C34.6074 27.4221 34.6565 27.6696 34.6562 27.9195C34.6562 28.4281 34.457 28.9062 34.0984 29.2648L31.607 31.7562C31.0352 32.3305 30.2453 32.6562 29.4344 32.6562C29.2633 32.6562 29.0992 32.6422 28.9375 32.6141C25.7781 32.0938 22.6445 30.4133 20.1156 27.8867C17.5891 25.3625 15.9109 22.2312 15.3836 19.0625C15.2242 18.0945 15.5453 17.0984 16.2437 16.3953Z" fill="white"/>
</g>
<path d="M49.5 24C49.5 36.9597 38.5504 47.5 25 47.5C11.4496 47.5 0.5 36.9597 0.5 24C0.5 11.0403 11.4496 0.5 25 0.5C38.5504 0.5 49.5 11.0403 49.5 24Z" stroke="white"/>
<defs>
<clipPath id="clip0_468_212">
<rect width="24" height="24" fill="white" transform="matrix(-1 0 0 1 37 11)"/>
</clipPath>
</defs>
</svg>
