<svg width="56" height="57" viewBox="0 0 56 57" fill="none" xmlns="http://www.w3.org/2000/svg">
<rect x="0.5" y="1" width="55" height="55" rx="27.5" stroke="white"/>
<path d="M28.0027 24.1031C24.5974 24.1031 21.8508 26.7359 21.8508 30C21.8508 33.2641 24.5974 35.8969 28.0027 35.8969C31.4079 35.8969 34.1546 33.2641 34.1546 30C34.1546 26.7359 31.4079 24.1031 28.0027 24.1031ZM28.0027 33.8338C25.8021 33.8338 24.0031 32.1145 24.0031 30C24.0031 27.8855 25.7968 26.1662 28.0027 26.1662C30.2086 26.1662 32.0022 27.8855 32.0022 30C32.0022 32.1145 30.2032 33.8338 28.0027 33.8338ZM35.8412 23.8619C35.8412 24.6266 35.1987 25.2373 34.4062 25.2373C33.6085 25.2373 32.9713 24.6214 32.9713 23.8619C32.9713 23.1023 33.6138 22.4864 34.4062 22.4864C35.1987 22.4864 35.8412 23.1023 35.8412 23.8619ZM39.9157 25.2578C39.8247 23.4154 39.3856 21.7833 37.9775 20.4387C36.5747 19.0941 34.8721 18.6732 32.9499 18.5808C30.9689 18.4731 25.0311 18.4731 23.0501 18.5808C21.1333 18.6681 19.4307 19.0889 18.0225 20.4336C16.6144 21.7782 16.1807 23.4102 16.0843 25.2527C15.9719 27.1516 15.9719 32.8432 16.0843 34.7422C16.1753 36.5846 16.6144 38.2167 18.0225 39.5613C19.4307 40.9059 21.1279 41.3268 23.0501 41.4192C25.0311 41.5269 30.9689 41.5269 32.9499 41.4192C34.8721 41.3319 36.5747 40.9111 37.9775 39.5613C39.3803 38.2167 39.8193 36.5846 39.9157 34.7422C40.0281 32.8432 40.0281 27.1568 39.9157 25.2578ZM37.3564 36.7796C36.9388 37.7856 36.1303 38.5605 35.0755 38.966C33.496 39.5664 29.7481 39.4279 28.0027 39.4279C26.2572 39.4279 22.504 39.5613 20.9298 38.966C19.8804 38.5657 19.0719 37.7907 18.649 36.7796C18.0225 35.2656 18.1671 31.6731 18.1671 30C18.1671 28.3269 18.0279 24.7292 18.649 23.2204C19.0666 22.2144 19.8751 21.4395 20.9298 21.034C22.5093 20.4336 26.2572 20.5721 28.0027 20.5721C29.7481 20.5721 33.5014 20.4387 35.0755 21.034C36.1249 21.4343 36.9334 22.2093 37.3564 23.2204C37.9828 24.7344 37.8383 28.3269 37.8383 30C37.8383 31.6731 37.9828 35.2708 37.3564 36.7796Z" fill="#F5F5F5"/>
</svg>
