<svg width="54" height="55" viewBox="0 0 54 55" fill="none" xmlns="http://www.w3.org/2000/svg">
<rect x="0.5" y="1" width="53" height="53" rx="26.5" stroke="white"/>
<path d="M37 20.6382C36.2645 20.9897 35.4641 21.2426 34.6397 21.3411C35.4956 20.7778 36.1366 19.8878 36.4424 18.8382C35.6392 19.3675 34.7593 19.7387 33.8417 19.9352C33.4582 19.481 32.9944 19.1192 32.4792 18.8723C31.9639 18.6254 31.4083 18.4986 30.8469 18.5C28.5755 18.5 26.7488 20.5397 26.7488 23.0426C26.7488 23.3941 26.7873 23.7456 26.8498 24.0837C23.4487 23.8867 20.4155 22.0867 18.3989 19.3308C18.0314 20.0261 17.8389 20.8177 17.8412 21.6234C17.8412 23.1997 18.5647 24.5897 19.6679 25.4071C19.0178 25.3787 18.3829 25.1808 17.8148 24.8293V24.8852C17.8148 27.0926 19.2233 28.9219 21.1005 29.3426C20.748 29.444 20.3854 29.4959 20.0213 29.497C19.7545 29.497 19.5021 29.4678 19.2473 29.4278C19.7665 31.2278 21.2783 32.5352 23.0786 32.5778C21.6701 33.8 19.9059 34.5189 17.9903 34.5189C17.6466 34.5189 17.3293 34.5056 17 34.463C18.8171 35.7544 20.9731 36.5 23.2949 36.5C30.8325 36.5 34.957 29.5823 34.957 23.5778C34.957 23.3808 34.957 23.1837 34.945 22.9867C35.7429 22.3397 36.4424 21.5382 37 20.6382Z" fill="white"/>
</svg>
