<svg width="40" height="40" viewBox="0 0 55 55" fill="none" xmlns="http://www.w3.org/2000/svg">
<rect x="0.5" y="1" width="53" height="53" rx="26.5" stroke="white"/>
<g clip-path="url(#clip0_468_196)">
<path d="M36.4408 22.2686C36.9168 24.1248 36.9168 27.9998 36.9168 27.9998C36.9168 27.9998 36.9168 31.8748 36.4408 33.7311C36.1762 34.7571 35.4022 35.5644 34.422 35.8373C32.6418 36.3332 26.5002 36.3332 26.5002 36.3332C26.5002 36.3332 20.3616 36.3332 18.5783 35.8373C17.5939 35.5603 16.821 34.754 16.5595 33.7311C16.0835 31.8748 16.0835 27.9998 16.0835 27.9998C16.0835 27.9998 16.0835 24.1248 16.5595 22.2686C16.8241 21.2425 17.5981 20.4353 18.5783 20.1623C20.3616 19.6665 26.5002 19.6665 26.5002 19.6665C26.5002 19.6665 32.6418 19.6665 34.422 20.1623C35.4064 20.4394 36.1793 21.2457 36.4408 22.2686ZM24.4168 31.6457L30.6668 27.9998L24.4168 24.354V31.6457Z" fill="#F8F8F8"/>
</g>
<defs>
<clipPath id="clip0_468_196">
<rect width="25" height="25" fill="white" transform="translate(14 15.5)"/>
</clipPath>
</defs>
</svg>
